# xmcd
#
# Track frame offsets:
#	150
#	13523
#	34386
#	60482
#	86170
#	97586
#	109535
#	124966
#	150726
#	186697
#	214107
#	229701
#	244968
#	269327
#	293107
#	315914
#
# Disc length: 4565 seconds
#
# Revision: 0
# Processed by: cddbd v1.5.2PL0 Copyright (c) Steve Scherf et al.
# Submitted via: EasyCDDAExtractor 16.0.6.1
#
DISCID=db11d310
DTITLE=Various Artist - Smooth Jazz and The City
DYEAR=1900
DGENRE=
TTITLE0=Eileen Farrell - In Other Words 
TTITLE1=Stan Getz - Melancolioco
TTITLE2=Kenny Burrell - Autumn In New York
TTITLE3=Billie Holiday - One For My Baby 
TTITLE4=Shirley Horn - Like Someone In Love
TTITLE5=Dinah Shore - Under A Blanket Of Blue
TTITLE6=Warren Baker's Little Jazz Band -  - Chasing Chopin
TTITLE7=John Coltrane - Every Time We Say Goodbye
TTITLE8=Miles Davis - The Man I Love
TTITLE9=Tina Brooks - For Heavens Sake
TTITLE10=Morgana King - Mean To Me
TTITLE11=Peggy Lee - Black Coffee
TTITLE12=King Curtis - Willow Weep For Me
TTITLE13=Sonny Rollins Quintet - Count Your Blessings
TTITLE14=Johnny Hodges and His Orchestra - Satin Doll
TTITLE15=Coleman Hawkins and Duke Ellington - Solitude
EXTD=
EXTT0=
EXTT1=
EXTT2=
EXTT3=
EXTT4=
EXTT5=
EXTT6=
EXTT7=
EXTT8=
EXTT9=
EXTT10=
EXTT11=
EXTT12=
EXTT13=
EXTT14=
EXTT15=
PLAYORDER=
